C:\GBW_MyPrograms\KinderuniversiteitApp\Resultaten\Ellis_v10102025\Reus\Reus_v4.mot
version=1
nRows=9
nColumns=29
inDegrees=yes
endheader
                time	         pelvis_tilt	           pelvis_tx	           pelvis_ty	       hip_flexion_l	       hip_flexion_r	        knee_angle_l	        knee_angle_r	       ankle_angle_l	       ankle_angle_r	    lumbar_extension	hamstrings_r/activation	bifemsh_r/activation	glut_max_r/activation	iliopsoas_r/activation	rect_fem_r/activation	  vasti_r/activation	gastroc_r/activation	 soleus_r/activation	tib_ant_r/activation	hamstrings_l/activation	bifemsh_l/activation	glut_max_l/activation	iliopsoas_l/activation	rect_fem_l/activation	  vasti_l/activation	gastroc_l/activation	 soleus_l/activation	tib_ant_l/activation	
          0.30000005	         -8.59710052	          0.72736491	          0.76937003	         21.00631014	         21.35450367	        -28.38231143	        -28.46235970	          3.49762998	          4.66466697	         -8.90120127	          0.51837910	          0.45409214	          0.54931371	          0.37052871	          0.43299487	          0.49633902	          0.48474164	          0.44866760	          0.41911298	          0.38760987	          0.48149942	          0.46837189	          0.46885585	          0.52735861	          0.44516286	          0.45950744	          0.44206799	          0.41064876	
          0.30200005	         -8.57031546	          0.78153182	          0.76911155	         20.49513038	         22.37391777	        -27.68713820	        -27.07299976	          3.60778495	          4.86781572	         -8.90025467	          0.53631599	          0.44726008	          0.56423849	          0.35527189	          0.41756183	          0.49922932	          0.47368741	          0.43722585	          0.42683585	          0.37366650	          0.47047251	          0.47708864	          0.45599034	          0.53672510	          0.46999430	          0.45467686	          0.46080190	          0.39442308	
          0.30400005	         -8.56493050	          0.81716403	          0.76910059	         21.35044347	         21.77190540	        -27.98668959	        -28.30409379	          3.76981791	          4.96679369	         -8.89916263	          0.55391659	          0.45398065	          0.57669875	          0.34121640	          0.40088323	          0.47889989	          0.47375900	          0.42575643	          0.43248455	          0.35792224	          0.45892730	          0.47497650	          0.45139430	          0.54661351	          0.49375558	          0.45185832	          0.47542146	          0.37780293	
          0.30600005	         -8.58473718	          0.84025216	          0.76787182	         21.07074352	         21.45619688	        -28.48492332	        -29.06301077	          3.95523733	          4.90200401	         -8.89869068	          0.56976137	          0.46289462	          0.58832895	          0.32719893	          0.38418665	          0.45741271	          0.48204878	          0.41954789	          0.42718514	          0.34367736	          0.45258078	          0.46130572	          0.46832379	          0.55347497	          0.48928557	          0.45148507	          0.46373175	          0.36256057	
          0.30800005	         -8.58364845	          0.85479254	          0.76427788	         21.13132096	         21.22920774	        -28.86199209	        -29.53062714	          4.12035253	          4.76190454	         -8.89905287	          0.58276437	          0.45933405	          0.59922097	          0.31297461	          0.36845294	          0.43957032	          0.48000838	          0.41822361	          0.41783827	          0.33182657	          0.45877218	          0.44397766	          0.48881631	          0.55655050	          0.46919742	          0.44429510	          0.44394245	          0.35378173	
          0.31000005	         -8.57979321	          0.86364466	          0.76517667	         21.02583516	         21.09662020	        -29.33641315	        -30.46204673	          4.17499205	          4.55360063	         -8.90162097	          0.59319329	          0.44981212	          0.60973522	          0.29880057	          0.35362790	          0.45098244	          0.47719680	          0.43392059	          0.40657043	          0.32397786	          0.47316720	          0.42661123	          0.50791795	          0.55477588	          0.44636062	          0.43543340	          0.42395347	          0.36429432	
          0.31200005	         -8.53718675	          0.86882939	          0.76324029	         21.01763093	         21.32066755	        -28.57258491	        -30.30111715	          4.20995417	          4.32990467	         -8.90707774	          0.59908545	          0.45057248	          0.61686434	          0.28809302	          0.33950621	          0.42776951	          0.48726014	          0.43446536	          0.39565346	          0.31371483	          0.48985047	          0.40749568	          0.52613824	          0.55392819	          0.42325339	          0.42447642	          0.40338604	          0.37623152	
          0.31400005	         -8.41875438	          0.87174925	          0.75735403	         22.23913579	         22.17725581	        -26.79450240	        -29.78344048	          4.19983387	          4.02103981	         -8.91486180	          0.57994629	          0.46319135	          0.61807912	          0.28535161	          0.32811111	          0.40314602	          0.49159975	          0.42119824	          0.38615698	          0.30240521	          0.50403953	          0.38790539	          0.54053702	          0.55354118	          0.40108522	          0.41305669	          0.38340412	          0.36614858	
          0.31600005	         -8.26245918	          0.87333487	          0.75106623	         24.22106424	         23.63977455	        -24.02895335	        -28.42016322	          4.11618562	          3.59424188	         -8.92247810	          0.55424754	          0.46245132	          0.61618881	          0.28377562	          0.33513014	          0.37789576	          0.48785365	          0.43991729	          0.37229603	          0.29873051	          0.49920350	          0.37615029	          0.52467814	          0.54837102	          0.38419298	          0.42982836	          0.37600542	          0.35002166	
